//  Geo file generated by DFNMesh project
//	https://github.com/labmec/dfnMesh// POINTS DEFINITION 

h = 0;

Point(1) = {0,0,0, h};
Point(2) = {10,0,0, h};
Point(3) = {0,10,0, h};
Point(4) = {10,10,0, h};
Point(5) = {0,0,15, h};
Point(6) = {10,0,15, h};
Point(7) = {0,10,15, h};
Point(8) = {10,10,15, h};
Point(9) = {10,0,7.5, h};
Point(10) = {0,0,7.5, h};
Point(11) = {0,10,7.5, h};
Point(12) = {10,10,7.5, h};


// LINES DEFINITION 

Line(13) = {10,1};
Line(14) = {10,9};
Line(15) = {9,2};
Line(16) = {1,2};
Line(17) = {5,10};
Line(18) = {5,6};
Line(19) = {6,9};
Line(20) = {3,4};
Line(21) = {2,4};
Line(22) = {1,3};
Line(23) = {3,11};
Line(24) = {10,11};
Line(25) = {11,7};
Line(26) = {7,5};
Line(27) = {9,12};
Line(28) = {4,12};
Line(29) = {8,6};
Line(30) = {12,8};
Line(31) = {7,8};
Line(32) = {11,12};


// FACES DEFINITION 

Curve Loop(1) = {16,-15,-14,13};
Surface(1) = {1};
Curve Loop(2) = {14,-19,-18,17};
Surface(2) = {2};
Curve Loop(3) = {-22,16,21,-20};
Surface(3) = {3};
Curve Loop(4) = {-13,24,-23,-22};
Surface(4) = {4};
Curve Loop(5) = {-17,-26,-25,-24};
Surface(5) = {5};
Curve Loop(6) = {21,28,-27,15};
Surface(6) = {6};
Curve Loop(7) = {27,30,29,19};
Surface(7) = {7};
Curve Loop(8) = {18,-29,-31,26};
Surface(8) = {8};
Curve Loop(9) = {-25,32,30,-31};
Surface(9) = {9};
Curve Loop(10) = {-23,20,28,-32};
Surface(10) = {10};
Curve Loop(33) = {32,-27,-14,24};
Surface(33) = {33};



// VOLUMES DEFINITION 

Surface Loop(2) = {1,3,4,6,10,33};
Volume(2) = {2};
Surface Loop(3) = {2,5,7,8,9,33};
Volume(3) = {3};


// COARSE ELEMENTS GROUPING

Physical Volume("c0",11) = {2};
Physical Volume("c1",12) = {3};



// BOUNDARY CONDITIONS

Physical Surface("inlet",3) = {8};
Physical Surface("outlet",13) = {3};
Physical Surface("noflux",14) = {1,2,4,5,6,7,9,10};


// INTER-FRACTURE INTERSECTIONS


// OPTIONS

Coherence Mesh;
Transfinite Curve {:} = 2;
Transfinite Curve {30,25,23,28,17,19,13,15} = 3;
Transfinite Surface{:};
Transfinite Volume{:};
Recombine Surface{:};
Recombine Volume{:};