//  Geo file generated by DFNMesh project
//	https://github.com/labmec/dfnMesh// POINTS DEFINITION 

h = 0;

Point(1) = {0,0,0, h};
Point(2) = {5000,0,0, h};
Point(3) = {0,5000,0, h};
Point(4) = {5000,5000,0, h};
Point(5) = {0,0,300, h};
Point(6) = {5000,0,300, h};
Point(7) = {0,5000,300, h};
Point(8) = {5000,5000,300, h};
Point(9) = {1250,0,0, h};
Point(10) = {2500,0,0, h};
Point(11) = {3750,0,0, h};
Point(12) = {5000,1250,0, h};
Point(13) = {5000,2500,0, h};
Point(14) = {5000,3750,0, h};
Point(15) = {3750,5000,0, h};
Point(16) = {2500,5000,0, h};
Point(17) = {1250,5000,0, h};
Point(18) = {0,3750,0, h};
Point(19) = {0,2500,0, h};
Point(20) = {0,1250,0, h};
Point(21) = {5000,0,75, h};
Point(22) = {5000,0,150, h};
Point(23) = {5000,0,225, h};
Point(24) = {0,0,75, h};
Point(25) = {0,0,150, h};
Point(26) = {0,0,225, h};
Point(27) = {1250,0,300, h};
Point(28) = {2500,0,300, h};
Point(29) = {3750,0,300, h};
Point(30) = {5000,1250,300, h};
Point(31) = {5000,2500,300, h};
Point(32) = {5000,3750,300, h};
Point(33) = {3750,5000,300, h};
Point(34) = {2500,5000,300, h};
Point(35) = {1250,5000,300, h};
Point(36) = {0,3750,300, h};
Point(37) = {0,2500,300, h};
Point(38) = {0,1250,300, h};
Point(39) = {0,5000,225, h};
Point(40) = {0,5000,150, h};
Point(41) = {0,5000,75, h};
Point(42) = {5000,5000,225, h};
Point(43) = {5000,5000,150, h};
Point(44) = {5000,5000,75, h};
Point(45) = {1250,0,75, h};
Point(46) = {1250,0,150, h};
Point(47) = {1250,0,225, h};
Point(48) = {2500,0,75, h};
Point(49) = {2500,0,150, h};
Point(50) = {2500,0,225, h};
Point(51) = {3750,0,75, h};
Point(52) = {3750,0,150, h};
Point(53) = {3750,0,225, h};
Point(54) = {1250,3750,0, h};
Point(55) = {2500,3750,0, h};
Point(56) = {3750,3750,0, h};
Point(57) = {1250,2500,0, h};
Point(58) = {2500,2500,0, h};
Point(59) = {3750,2500,0, h};
Point(60) = {1250,1250,0, h};
Point(61) = {2500,1250,0, h};
Point(62) = {3750,1250,0, h};
Point(63) = {0,1250,75, h};
Point(64) = {0,2500,75, h};
Point(65) = {0,3750,75, h};
Point(66) = {0,1250,150, h};
Point(67) = {0,2500,150, h};
Point(68) = {0,3750,150, h};
Point(69) = {0,1250,225, h};
Point(70) = {0,2500,225, h};
Point(71) = {0,3750,225, h};
Point(72) = {5000,1250,75, h};
Point(73) = {5000,1250,150, h};
Point(74) = {5000,1250,225, h};
Point(75) = {5000,2500,75, h};
Point(76) = {5000,2500,150, h};
Point(77) = {5000,2500,225, h};
Point(78) = {5000,3750,75, h};
Point(79) = {5000,3750,150, h};
Point(80) = {5000,3750,225, h};
Point(81) = {1250,1250,300, h};
Point(82) = {1250,2500,300, h};
Point(83) = {1250,3750,300, h};
Point(84) = {2500,1250,300, h};
Point(85) = {2500,2500,300, h};
Point(86) = {2500,3750,300, h};
Point(87) = {3750,1250,300, h};
Point(88) = {3750,2500,300, h};
Point(89) = {3750,3750,300, h};
Point(90) = {1250,5000,225, h};
Point(91) = {2500,5000,225, h};
Point(92) = {3750,5000,225, h};
Point(93) = {1250,5000,150, h};
Point(94) = {2500,5000,150, h};
Point(95) = {3750,5000,150, h};
Point(96) = {1250,5000,75, h};
Point(97) = {2500,5000,75, h};
Point(98) = {3750,5000,75, h};
Point(99) = {1250,1250,75, h};
Point(100) = {2500,1250,75, h};
Point(101) = {3750,1250,75, h};
Point(102) = {1250,2500,75, h};
Point(103) = {2500,2500,75, h};
Point(104) = {3750,2500,75, h};
Point(105) = {1250,3750,75, h};
Point(106) = {2500,3750,75, h};
Point(107) = {3750,3750,75, h};
Point(108) = {1250,1250,150, h};
Point(109) = {2500,1250,150, h};
Point(110) = {3750,1250,150, h};
Point(111) = {1250,2500,150, h};
Point(112) = {2500,2500,150, h};
Point(113) = {3750,2500,150, h};
Point(114) = {1250,3750,150, h};
Point(115) = {2500,3750,150, h};
Point(116) = {3750,3750,150, h};
Point(117) = {1250,1250,225, h};
Point(118) = {2500,1250,225, h};
Point(119) = {3750,1250,225, h};
Point(120) = {1250,2500,225, h};
Point(121) = {2500,2500,225, h};
Point(122) = {3750,2500,225, h};
Point(123) = {1250,3750,225, h};
Point(124) = {2500,3750,225, h};
Point(125) = {3750,3750,225, h};


// LINES DEFINITION 

Line(161) = {24,1};
Line(162) = {24,45};
Line(163) = {45,9};
Line(164) = {1,9};
Line(165) = {25,24};
Line(166) = {25,46};
Line(167) = {46,45};
Line(168) = {26,25};
Line(169) = {26,47};
Line(170) = {47,46};
Line(171) = {5,26};
Line(172) = {5,27};
Line(173) = {27,47};
Line(174) = {45,48};
Line(175) = {48,10};
Line(176) = {9,10};
Line(177) = {46,49};
Line(178) = {49,48};
Line(179) = {47,50};
Line(180) = {50,49};
Line(181) = {27,28};
Line(182) = {28,50};
Line(183) = {48,51};
Line(184) = {51,11};
Line(185) = {10,11};
Line(186) = {49,52};
Line(187) = {52,51};
Line(188) = {50,53};
Line(189) = {53,52};
Line(190) = {28,29};
Line(191) = {29,53};
Line(192) = {51,21};
Line(193) = {21,2};
Line(194) = {11,2};
Line(195) = {52,22};
Line(196) = {22,21};
Line(197) = {53,23};
Line(198) = {23,22};
Line(199) = {29,6};
Line(200) = {6,23};
Line(201) = {3,17};
Line(202) = {54,17};
Line(203) = {18,54};
Line(204) = {18,3};
Line(205) = {17,16};
Line(206) = {55,16};
Line(207) = {54,55};
Line(208) = {16,15};
Line(209) = {56,15};
Line(210) = {55,56};
Line(211) = {15,4};
Line(212) = {14,4};
Line(213) = {56,14};
Line(214) = {57,54};
Line(215) = {19,57};
Line(216) = {19,18};
Line(217) = {58,55};
Line(218) = {57,58};
Line(219) = {59,56};
Line(220) = {58,59};
Line(221) = {13,14};
Line(222) = {59,13};
Line(223) = {60,57};
Line(224) = {20,60};
Line(225) = {20,19};
Line(226) = {61,58};
Line(227) = {60,61};
Line(228) = {62,59};
Line(229) = {61,62};
Line(230) = {12,13};
Line(231) = {62,12};
Line(232) = {9,60};
Line(233) = {1,20};
Line(234) = {10,61};
Line(235) = {11,62};
Line(236) = {2,12};
Line(237) = {63,20};
Line(238) = {24,63};
Line(239) = {64,19};
Line(240) = {63,64};
Line(241) = {65,18};
Line(242) = {64,65};
Line(243) = {3,41};
Line(244) = {65,41};
Line(245) = {66,63};
Line(246) = {25,66};
Line(247) = {67,64};
Line(248) = {66,67};
Line(249) = {68,65};
Line(250) = {67,68};
Line(251) = {41,40};
Line(252) = {68,40};
Line(253) = {69,66};
Line(254) = {26,69};
Line(255) = {70,67};
Line(256) = {69,70};
Line(257) = {71,68};
Line(258) = {70,71};
Line(259) = {40,39};
Line(260) = {71,39};
Line(261) = {38,69};
Line(262) = {38,5};
Line(263) = {37,70};
Line(264) = {37,38};
Line(265) = {36,71};
Line(266) = {36,37};
Line(267) = {39,7};
Line(268) = {7,36};
Line(269) = {21,72};
Line(270) = {72,12};
Line(271) = {22,73};
Line(272) = {73,72};
Line(273) = {23,74};
Line(274) = {74,73};
Line(275) = {30,6};
Line(276) = {30,74};
Line(277) = {72,75};
Line(278) = {75,13};
Line(279) = {73,76};
Line(280) = {76,75};
Line(281) = {74,77};
Line(282) = {77,76};
Line(283) = {31,30};
Line(284) = {31,77};
Line(285) = {75,78};
Line(286) = {78,14};
Line(287) = {76,79};
Line(288) = {79,78};
Line(289) = {77,80};
Line(290) = {80,79};
Line(291) = {32,31};
Line(292) = {32,80};
Line(293) = {78,44};
Line(294) = {4,44};
Line(295) = {79,43};
Line(296) = {44,43};
Line(297) = {80,42};
Line(298) = {43,42};
Line(299) = {8,32};
Line(300) = {42,8};
Line(301) = {38,81};
Line(302) = {81,27};
Line(303) = {37,82};
Line(304) = {82,81};
Line(305) = {36,83};
Line(306) = {83,82};
Line(307) = {7,35};
Line(308) = {35,83};
Line(309) = {81,84};
Line(310) = {84,28};
Line(311) = {82,85};
Line(312) = {85,84};
Line(313) = {83,86};
Line(314) = {86,85};
Line(315) = {35,34};
Line(316) = {34,86};
Line(317) = {84,87};
Line(318) = {87,29};
Line(319) = {85,88};
Line(320) = {88,87};
Line(321) = {86,89};
Line(322) = {89,88};
Line(323) = {34,33};
Line(324) = {33,89};
Line(325) = {87,30};
Line(326) = {88,31};
Line(327) = {89,32};
Line(328) = {33,8};
Line(329) = {90,35};
Line(330) = {39,90};
Line(331) = {91,34};
Line(332) = {90,91};
Line(333) = {92,33};
Line(334) = {91,92};
Line(335) = {92,42};
Line(336) = {93,90};
Line(337) = {40,93};
Line(338) = {94,91};
Line(339) = {93,94};
Line(340) = {95,92};
Line(341) = {94,95};
Line(342) = {95,43};
Line(343) = {96,93};
Line(344) = {41,96};
Line(345) = {97,94};
Line(346) = {96,97};
Line(347) = {98,95};
Line(348) = {97,98};
Line(349) = {98,44};
Line(350) = {17,96};
Line(351) = {16,97};
Line(352) = {15,98};
Line(353) = {99,60};
Line(354) = {45,99};
Line(355) = {63,99};
Line(356) = {100,61};
Line(357) = {48,100};
Line(358) = {99,100};
Line(359) = {101,62};
Line(360) = {51,101};
Line(361) = {100,101};
Line(362) = {101,72};
Line(363) = {102,57};
Line(364) = {99,102};
Line(365) = {64,102};
Line(366) = {103,58};
Line(367) = {100,103};
Line(368) = {102,103};
Line(369) = {104,59};
Line(370) = {101,104};
Line(371) = {103,104};
Line(372) = {104,75};
Line(373) = {105,54};
Line(374) = {102,105};
Line(375) = {65,105};
Line(376) = {106,55};
Line(377) = {103,106};
Line(378) = {105,106};
Line(379) = {107,56};
Line(380) = {104,107};
Line(381) = {106,107};
Line(382) = {107,78};
Line(383) = {105,96};
Line(384) = {106,97};
Line(385) = {107,98};
Line(386) = {108,99};
Line(387) = {46,108};
Line(388) = {66,108};
Line(389) = {109,100};
Line(390) = {49,109};
Line(391) = {108,109};
Line(392) = {110,101};
Line(393) = {52,110};
Line(394) = {109,110};
Line(395) = {110,73};
Line(396) = {111,102};
Line(397) = {108,111};
Line(398) = {67,111};
Line(399) = {112,103};
Line(400) = {109,112};
Line(401) = {111,112};
Line(402) = {113,104};
Line(403) = {110,113};
Line(404) = {112,113};
Line(405) = {113,76};
Line(406) = {114,105};
Line(407) = {111,114};
Line(408) = {68,114};
Line(409) = {115,106};
Line(410) = {112,115};
Line(411) = {114,115};
Line(412) = {116,107};
Line(413) = {113,116};
Line(414) = {115,116};
Line(415) = {116,79};
Line(416) = {114,93};
Line(417) = {115,94};
Line(418) = {116,95};
Line(419) = {117,108};
Line(420) = {47,117};
Line(421) = {69,117};
Line(422) = {118,109};
Line(423) = {50,118};
Line(424) = {117,118};
Line(425) = {119,110};
Line(426) = {53,119};
Line(427) = {118,119};
Line(428) = {119,74};
Line(429) = {120,111};
Line(430) = {117,120};
Line(431) = {70,120};
Line(432) = {121,112};
Line(433) = {118,121};
Line(434) = {120,121};
Line(435) = {122,113};
Line(436) = {119,122};
Line(437) = {121,122};
Line(438) = {122,77};
Line(439) = {123,114};
Line(440) = {120,123};
Line(441) = {71,123};
Line(442) = {124,115};
Line(443) = {121,124};
Line(444) = {123,124};
Line(445) = {125,116};
Line(446) = {122,125};
Line(447) = {124,125};
Line(448) = {125,80};
Line(449) = {123,90};
Line(450) = {124,91};
Line(451) = {125,92};
Line(452) = {81,117};
Line(453) = {84,118};
Line(454) = {87,119};
Line(455) = {82,120};
Line(456) = {85,121};
Line(457) = {88,122};
Line(458) = {83,123};
Line(459) = {86,124};
Line(460) = {89,125};


// FACES DEFINITION 

Curve Loop(1) = {164,-163,-162,161};
Surface(1) = {1};
Curve Loop(2) = {162,-167,-166,165};
Surface(2) = {2};
Curve Loop(3) = {166,-170,-169,168};
Surface(3) = {3};
Curve Loop(4) = {169,-173,-172,171};
Surface(4) = {4};
Curve Loop(5) = {176,-175,-174,163};
Surface(5) = {5};
Curve Loop(6) = {174,-178,-177,167};
Surface(6) = {6};
Curve Loop(7) = {177,-180,-179,170};
Surface(7) = {7};
Curve Loop(8) = {179,-182,-181,173};
Surface(8) = {8};
Curve Loop(9) = {185,-184,-183,175};
Surface(9) = {9};
Curve Loop(10) = {183,-187,-186,178};
Surface(10) = {10};
Curve Loop(11) = {186,-189,-188,180};
Surface(11) = {11};
Curve Loop(12) = {188,-191,-190,182};
Surface(12) = {12};
Curve Loop(13) = {194,-193,-192,184};
Surface(13) = {13};
Curve Loop(14) = {192,-196,-195,187};
Surface(14) = {14};
Curve Loop(15) = {195,-198,-197,189};
Surface(15) = {15};
Curve Loop(16) = {197,-200,-199,191};
Surface(16) = {16};
Curve Loop(17) = {-204,203,202,-201};
Surface(17) = {17};
Curve Loop(18) = {-202,207,206,-205};
Surface(18) = {18};
Curve Loop(19) = {-206,210,209,-208};
Surface(19) = {19};
Curve Loop(20) = {-209,213,212,-211};
Surface(20) = {20};
Curve Loop(21) = {-216,215,214,-203};
Surface(21) = {21};
Curve Loop(22) = {-214,218,217,-207};
Surface(22) = {22};
Curve Loop(23) = {-217,220,219,-210};
Surface(23) = {23};
Curve Loop(24) = {-219,222,221,-213};
Surface(24) = {24};
Curve Loop(25) = {-225,224,223,-215};
Surface(25) = {25};
Curve Loop(26) = {-223,227,226,-218};
Surface(26) = {26};
Curve Loop(27) = {-226,229,228,-220};
Surface(27) = {27};
Curve Loop(28) = {-228,231,230,-222};
Surface(28) = {28};
Curve Loop(29) = {-233,164,232,-224};
Surface(29) = {29};
Curve Loop(30) = {-232,176,234,-227};
Surface(30) = {30};
Curve Loop(31) = {-234,185,235,-229};
Surface(31) = {31};
Curve Loop(32) = {-235,194,236,-231};
Surface(32) = {32};
Curve Loop(33) = {-161,238,237,-233};
Surface(33) = {33};
Curve Loop(34) = {-237,240,239,-225};
Surface(34) = {34};
Curve Loop(35) = {-239,242,241,-216};
Surface(35) = {35};
Curve Loop(36) = {-241,244,-243,-204};
Surface(36) = {36};
Curve Loop(37) = {-165,246,245,-238};
Surface(37) = {37};
Curve Loop(38) = {-245,248,247,-240};
Surface(38) = {38};
Curve Loop(39) = {-247,250,249,-242};
Surface(39) = {39};
Curve Loop(40) = {-249,252,-251,-244};
Surface(40) = {40};
Curve Loop(41) = {-168,254,253,-246};
Surface(41) = {41};
Curve Loop(42) = {-253,256,255,-248};
Surface(42) = {42};
Curve Loop(43) = {-255,258,257,-250};
Surface(43) = {43};
Curve Loop(44) = {-257,260,-259,-252};
Surface(44) = {44};
Curve Loop(45) = {-171,-262,261,-254};
Surface(45) = {45};
Curve Loop(46) = {-261,-264,263,-256};
Surface(46) = {46};
Curve Loop(47) = {-263,-266,265,-258};
Surface(47) = {47};
Curve Loop(48) = {-265,-268,-267,-260};
Surface(48) = {48};
Curve Loop(49) = {236,-270,-269,193};
Surface(49) = {49};
Curve Loop(50) = {269,-272,-271,196};
Surface(50) = {50};
Curve Loop(51) = {271,-274,-273,198};
Surface(51) = {51};
Curve Loop(52) = {273,-276,275,200};
Surface(52) = {52};
Curve Loop(53) = {230,-278,-277,270};
Surface(53) = {53};
Curve Loop(54) = {277,-280,-279,272};
Surface(54) = {54};
Curve Loop(55) = {279,-282,-281,274};
Surface(55) = {55};
Curve Loop(56) = {281,-284,283,276};
Surface(56) = {56};
Curve Loop(57) = {221,-286,-285,278};
Surface(57) = {57};
Curve Loop(58) = {285,-288,-287,280};
Surface(58) = {58};
Curve Loop(59) = {287,-290,-289,282};
Surface(59) = {59};
Curve Loop(60) = {289,-292,291,284};
Surface(60) = {60};
Curve Loop(61) = {212,294,-293,286};
Surface(61) = {61};
Curve Loop(62) = {293,296,-295,288};
Surface(62) = {62};
Curve Loop(63) = {295,298,-297,290};
Surface(63) = {63};
Curve Loop(64) = {297,300,299,292};
Surface(64) = {64};
Curve Loop(65) = {172,-302,-301,262};
Surface(65) = {65};
Curve Loop(66) = {301,-304,-303,264};
Surface(66) = {66};
Curve Loop(67) = {303,-306,-305,266};
Surface(67) = {67};
Curve Loop(68) = {305,-308,-307,268};
Surface(68) = {68};
Curve Loop(69) = {181,-310,-309,302};
Surface(69) = {69};
Curve Loop(70) = {309,-312,-311,304};
Surface(70) = {70};
Curve Loop(71) = {311,-314,-313,306};
Surface(71) = {71};
Curve Loop(72) = {313,-316,-315,308};
Surface(72) = {72};
Curve Loop(73) = {190,-318,-317,310};
Surface(73) = {73};
Curve Loop(74) = {317,-320,-319,312};
Surface(74) = {74};
Curve Loop(75) = {319,-322,-321,314};
Surface(75) = {75};
Curve Loop(76) = {321,-324,-323,316};
Surface(76) = {76};
Curve Loop(77) = {199,-275,-325,318};
Surface(77) = {77};
Curve Loop(78) = {325,-283,-326,320};
Surface(78) = {78};
Curve Loop(79) = {326,-291,-327,322};
Surface(79) = {79};
Curve Loop(80) = {327,-299,-328,324};
Surface(80) = {80};
Curve Loop(81) = {-267,330,329,-307};
Surface(81) = {81};
Curve Loop(82) = {-329,332,331,-315};
Surface(82) = {82};
Curve Loop(83) = {-331,334,333,-323};
Surface(83) = {83};
Curve Loop(84) = {-333,335,300,-328};
Surface(84) = {84};
Curve Loop(85) = {-259,337,336,-330};
Surface(85) = {85};
Curve Loop(86) = {-336,339,338,-332};
Surface(86) = {86};
Curve Loop(87) = {-338,341,340,-334};
Surface(87) = {87};
Curve Loop(88) = {-340,342,298,-335};
Surface(88) = {88};
Curve Loop(89) = {-251,344,343,-337};
Surface(89) = {89};
Curve Loop(90) = {-343,346,345,-339};
Surface(90) = {90};
Curve Loop(91) = {-345,348,347,-341};
Surface(91) = {91};
Curve Loop(92) = {-347,349,296,-342};
Surface(92) = {92};
Curve Loop(93) = {-243,201,350,-344};
Surface(93) = {93};
Curve Loop(94) = {-350,205,351,-346};
Surface(94) = {94};
Curve Loop(95) = {-351,208,352,-348};
Surface(95) = {95};
Curve Loop(96) = {-352,211,294,-349};
Surface(96) = {96};
Curve Loop(461) = {353,-232,-163,354};
Surface(461) = {461};
Curve Loop(462) = {237,224,-353,-355};
Surface(462) = {462};
Curve Loop(463) = {355,-354,-162,238};
Surface(463) = {463};
Curve Loop(464) = {356,-234,-175,357};
Surface(464) = {464};
Curve Loop(465) = {353,227,-356,-358};
Surface(465) = {465};
Curve Loop(466) = {358,-357,-174,354};
Surface(466) = {466};
Curve Loop(467) = {359,-235,-184,360};
Surface(467) = {467};
Curve Loop(468) = {356,229,-359,-361};
Surface(468) = {468};
Curve Loop(469) = {361,-360,-183,357};
Surface(469) = {469};
Curve Loop(470) = {359,231,-270,-362};
Surface(470) = {470};
Curve Loop(471) = {362,-269,-192,360};
Surface(471) = {471};
Curve Loop(472) = {363,-223,-353,364};
Surface(472) = {472};
Curve Loop(473) = {239,215,-363,-365};
Surface(473) = {473};
Curve Loop(474) = {365,-364,-355,240};
Surface(474) = {474};
Curve Loop(475) = {366,-226,-356,367};
Surface(475) = {475};
Curve Loop(476) = {363,218,-366,-368};
Surface(476) = {476};
Curve Loop(477) = {368,-367,-358,364};
Surface(477) = {477};
Curve Loop(478) = {369,-228,-359,370};
Surface(478) = {478};
Curve Loop(479) = {366,220,-369,-371};
Surface(479) = {479};
Curve Loop(480) = {371,-370,-361,367};
Surface(480) = {480};
Curve Loop(481) = {369,222,-278,-372};
Surface(481) = {481};
Curve Loop(482) = {372,-277,-362,370};
Surface(482) = {482};
Curve Loop(483) = {373,-214,-363,374};
Surface(483) = {483};
Curve Loop(484) = {241,203,-373,-375};
Surface(484) = {484};
Curve Loop(485) = {375,-374,-365,242};
Surface(485) = {485};
Curve Loop(486) = {376,-217,-366,377};
Surface(486) = {486};
Curve Loop(487) = {373,207,-376,-378};
Surface(487) = {487};
Curve Loop(488) = {378,-377,-368,374};
Surface(488) = {488};
Curve Loop(489) = {379,-219,-369,380};
Surface(489) = {489};
Curve Loop(490) = {376,210,-379,-381};
Surface(490) = {490};
Curve Loop(491) = {381,-380,-371,377};
Surface(491) = {491};
Curve Loop(492) = {379,213,-286,-382};
Surface(492) = {492};
Curve Loop(493) = {382,-285,-372,380};
Surface(493) = {493};
Curve Loop(494) = {-350,-202,-373,383};
Surface(494) = {494};
Curve Loop(495) = {344,-383,-375,244};
Surface(495) = {495};
Curve Loop(496) = {-351,-206,-376,384};
Surface(496) = {496};
Curve Loop(497) = {346,-384,-378,383};
Surface(497) = {497};
Curve Loop(498) = {-352,-209,-379,385};
Surface(498) = {498};
Curve Loop(499) = {348,-385,-381,384};
Surface(499) = {499};
Curve Loop(500) = {349,-293,-382,385};
Surface(500) = {500};
Curve Loop(501) = {386,-354,-167,387};
Surface(501) = {501};
Curve Loop(502) = {245,355,-386,-388};
Surface(502) = {502};
Curve Loop(503) = {388,-387,-166,246};
Surface(503) = {503};
Curve Loop(504) = {389,-357,-178,390};
Surface(504) = {504};
Curve Loop(505) = {386,358,-389,-391};
Surface(505) = {505};
Curve Loop(506) = {391,-390,-177,387};
Surface(506) = {506};
Curve Loop(507) = {392,-360,-187,393};
Surface(507) = {507};
Curve Loop(508) = {389,361,-392,-394};
Surface(508) = {508};
Curve Loop(509) = {394,-393,-186,390};
Surface(509) = {509};
Curve Loop(510) = {392,362,-272,-395};
Surface(510) = {510};
Curve Loop(511) = {395,-271,-195,393};
Surface(511) = {511};
Curve Loop(512) = {396,-364,-386,397};
Surface(512) = {512};
Curve Loop(513) = {247,365,-396,-398};
Surface(513) = {513};
Curve Loop(514) = {398,-397,-388,248};
Surface(514) = {514};
Curve Loop(515) = {399,-367,-389,400};
Surface(515) = {515};
Curve Loop(516) = {396,368,-399,-401};
Surface(516) = {516};
Curve Loop(517) = {401,-400,-391,397};
Surface(517) = {517};
Curve Loop(518) = {402,-370,-392,403};
Surface(518) = {518};
Curve Loop(519) = {399,371,-402,-404};
Surface(519) = {519};
Curve Loop(520) = {404,-403,-394,400};
Surface(520) = {520};
Curve Loop(521) = {402,372,-280,-405};
Surface(521) = {521};
Curve Loop(522) = {405,-279,-395,403};
Surface(522) = {522};
Curve Loop(523) = {406,-374,-396,407};
Surface(523) = {523};
Curve Loop(524) = {249,375,-406,-408};
Surface(524) = {524};
Curve Loop(525) = {408,-407,-398,250};
Surface(525) = {525};
Curve Loop(526) = {409,-377,-399,410};
Surface(526) = {526};
Curve Loop(527) = {406,378,-409,-411};
Surface(527) = {527};
Curve Loop(528) = {411,-410,-401,407};
Surface(528) = {528};
Curve Loop(529) = {412,-380,-402,413};
Surface(529) = {529};
Curve Loop(530) = {409,381,-412,-414};
Surface(530) = {530};
Curve Loop(531) = {414,-413,-404,410};
Surface(531) = {531};
Curve Loop(532) = {412,382,-288,-415};
Surface(532) = {532};
Curve Loop(533) = {415,-287,-405,413};
Surface(533) = {533};
Curve Loop(534) = {-343,-383,-406,416};
Surface(534) = {534};
Curve Loop(535) = {337,-416,-408,252};
Surface(535) = {535};
Curve Loop(536) = {-345,-384,-409,417};
Surface(536) = {536};
Curve Loop(537) = {339,-417,-411,416};
Surface(537) = {537};
Curve Loop(538) = {-347,-385,-412,418};
Surface(538) = {538};
Curve Loop(539) = {341,-418,-414,417};
Surface(539) = {539};
Curve Loop(540) = {342,-295,-415,418};
Surface(540) = {540};
Curve Loop(541) = {419,-387,-170,420};
Surface(541) = {541};
Curve Loop(542) = {253,388,-419,-421};
Surface(542) = {542};
Curve Loop(543) = {421,-420,-169,254};
Surface(543) = {543};
Curve Loop(544) = {422,-390,-180,423};
Surface(544) = {544};
Curve Loop(545) = {419,391,-422,-424};
Surface(545) = {545};
Curve Loop(546) = {424,-423,-179,420};
Surface(546) = {546};
Curve Loop(547) = {425,-393,-189,426};
Surface(547) = {547};
Curve Loop(548) = {422,394,-425,-427};
Surface(548) = {548};
Curve Loop(549) = {427,-426,-188,423};
Surface(549) = {549};
Curve Loop(550) = {425,395,-274,-428};
Surface(550) = {550};
Curve Loop(551) = {428,-273,-197,426};
Surface(551) = {551};
Curve Loop(552) = {429,-397,-419,430};
Surface(552) = {552};
Curve Loop(553) = {255,398,-429,-431};
Surface(553) = {553};
Curve Loop(554) = {431,-430,-421,256};
Surface(554) = {554};
Curve Loop(555) = {432,-400,-422,433};
Surface(555) = {555};
Curve Loop(556) = {429,401,-432,-434};
Surface(556) = {556};
Curve Loop(557) = {434,-433,-424,430};
Surface(557) = {557};
Curve Loop(558) = {435,-403,-425,436};
Surface(558) = {558};
Curve Loop(559) = {432,404,-435,-437};
Surface(559) = {559};
Curve Loop(560) = {437,-436,-427,433};
Surface(560) = {560};
Curve Loop(561) = {435,405,-282,-438};
Surface(561) = {561};
Curve Loop(562) = {438,-281,-428,436};
Surface(562) = {562};
Curve Loop(563) = {439,-407,-429,440};
Surface(563) = {563};
Curve Loop(564) = {257,408,-439,-441};
Surface(564) = {564};
Curve Loop(565) = {441,-440,-431,258};
Surface(565) = {565};
Curve Loop(566) = {442,-410,-432,443};
Surface(566) = {566};
Curve Loop(567) = {439,411,-442,-444};
Surface(567) = {567};
Curve Loop(568) = {444,-443,-434,440};
Surface(568) = {568};
Curve Loop(569) = {445,-413,-435,446};
Surface(569) = {569};
Curve Loop(570) = {442,414,-445,-447};
Surface(570) = {570};
Curve Loop(571) = {447,-446,-437,443};
Surface(571) = {571};
Curve Loop(572) = {445,415,-290,-448};
Surface(572) = {572};
Curve Loop(573) = {448,-289,-438,446};
Surface(573) = {573};
Curve Loop(574) = {-336,-416,-439,449};
Surface(574) = {574};
Curve Loop(575) = {330,-449,-441,260};
Surface(575) = {575};
Curve Loop(576) = {-338,-417,-442,450};
Surface(576) = {576};
Curve Loop(577) = {332,-450,-444,449};
Surface(577) = {577};
Curve Loop(578) = {-340,-418,-445,451};
Surface(578) = {578};
Curve Loop(579) = {334,-451,-447,450};
Surface(579) = {579};
Curve Loop(580) = {335,-297,-448,451};
Surface(580) = {580};
Curve Loop(581) = {452,-420,-173,-302};
Surface(581) = {581};
Curve Loop(582) = {261,421,-452,-301};
Surface(582) = {582};
Curve Loop(583) = {453,-423,-182,-310};
Surface(583) = {583};
Curve Loop(584) = {452,424,-453,-309};
Surface(584) = {584};
Curve Loop(585) = {454,-426,-191,-318};
Surface(585) = {585};
Curve Loop(586) = {453,427,-454,-317};
Surface(586) = {586};
Curve Loop(587) = {454,428,-276,-325};
Surface(587) = {587};
Curve Loop(588) = {455,-430,-452,-304};
Surface(588) = {588};
Curve Loop(589) = {263,431,-455,-303};
Surface(589) = {589};
Curve Loop(590) = {456,-433,-453,-312};
Surface(590) = {590};
Curve Loop(591) = {455,434,-456,-311};
Surface(591) = {591};
Curve Loop(592) = {457,-436,-454,-320};
Surface(592) = {592};
Curve Loop(593) = {456,437,-457,-319};
Surface(593) = {593};
Curve Loop(594) = {457,438,-284,-326};
Surface(594) = {594};
Curve Loop(595) = {458,-440,-455,-306};
Surface(595) = {595};
Curve Loop(596) = {265,441,-458,-305};
Surface(596) = {596};
Curve Loop(597) = {459,-443,-456,-314};
Surface(597) = {597};
Curve Loop(598) = {458,444,-459,-313};
Surface(598) = {598};
Curve Loop(599) = {460,-446,-457,-322};
Surface(599) = {599};
Curve Loop(600) = {459,447,-460,-321};
Surface(600) = {600};
Curve Loop(601) = {460,448,-292,-327};
Surface(601) = {601};
Curve Loop(602) = {-329,-449,-458,-308};
Surface(602) = {602};
Curve Loop(603) = {-331,-450,-459,-316};
Surface(603) = {603};
Curve Loop(604) = {-333,-451,-460,-324};
Surface(604) = {604};



// VOLUMES DEFINITION 

Surface Loop(2) = {1,29,33,461,462,463};
Volume(2) = {2};
Surface Loop(3) = {5,30,461,464,465,466};
Volume(3) = {3};
Surface Loop(4) = {9,31,464,467,468,469};
Volume(4) = {4};
Surface Loop(5) = {13,32,49,467,470,471};
Volume(5) = {5};
Surface Loop(6) = {25,34,462,472,473,474};
Volume(6) = {6};
Surface Loop(7) = {26,465,472,475,476,477};
Volume(7) = {7};
Surface Loop(8) = {27,468,475,478,479,480};
Volume(8) = {8};
Surface Loop(9) = {28,53,470,478,481,482};
Volume(9) = {9};
Surface Loop(10) = {21,35,473,483,484,485};
Volume(10) = {10};
Surface Loop(11) = {22,476,483,486,487,488};
Volume(11) = {11};
Surface Loop(12) = {23,479,486,489,490,491};
Volume(12) = {12};
Surface Loop(13) = {24,57,481,489,492,493};
Volume(13) = {13};
Surface Loop(14) = {17,36,93,484,494,495};
Volume(14) = {14};
Surface Loop(15) = {18,94,487,494,496,497};
Volume(15) = {15};
Surface Loop(16) = {19,95,490,496,498,499};
Volume(16) = {16};
Surface Loop(17) = {20,61,96,492,498,500};
Volume(17) = {17};
Surface Loop(18) = {2,37,463,501,502,503};
Volume(18) = {18};
Surface Loop(19) = {6,466,501,504,505,506};
Volume(19) = {19};
Surface Loop(20) = {10,469,504,507,508,509};
Volume(20) = {20};
Surface Loop(21) = {14,50,471,507,510,511};
Volume(21) = {21};
Surface Loop(22) = {38,474,502,512,513,514};
Volume(22) = {22};
Surface Loop(23) = {477,505,512,515,516,517};
Volume(23) = {23};
Surface Loop(24) = {480,508,515,518,519,520};
Volume(24) = {24};
Surface Loop(25) = {54,482,510,518,521,522};
Volume(25) = {25};
Surface Loop(26) = {39,485,513,523,524,525};
Volume(26) = {26};
Surface Loop(27) = {488,516,523,526,527,528};
Volume(27) = {27};
Surface Loop(28) = {491,519,526,529,530,531};
Volume(28) = {28};
Surface Loop(29) = {58,493,521,529,532,533};
Volume(29) = {29};
Surface Loop(30) = {40,89,495,524,534,535};
Volume(30) = {30};
Surface Loop(31) = {90,497,527,534,536,537};
Volume(31) = {31};
Surface Loop(32) = {91,499,530,536,538,539};
Volume(32) = {32};
Surface Loop(33) = {62,92,500,532,538,540};
Volume(33) = {33};
Surface Loop(34) = {3,41,503,541,542,543};
Volume(34) = {34};
Surface Loop(35) = {7,506,541,544,545,546};
Volume(35) = {35};
Surface Loop(36) = {11,509,544,547,548,549};
Volume(36) = {36};
Surface Loop(37) = {15,51,511,547,550,551};
Volume(37) = {37};
Surface Loop(38) = {42,514,542,552,553,554};
Volume(38) = {38};
Surface Loop(39) = {517,545,552,555,556,557};
Volume(39) = {39};
Surface Loop(40) = {520,548,555,558,559,560};
Volume(40) = {40};
Surface Loop(41) = {55,522,550,558,561,562};
Volume(41) = {41};
Surface Loop(42) = {43,525,553,563,564,565};
Volume(42) = {42};
Surface Loop(43) = {528,556,563,566,567,568};
Volume(43) = {43};
Surface Loop(44) = {531,559,566,569,570,571};
Volume(44) = {44};
Surface Loop(45) = {59,533,561,569,572,573};
Volume(45) = {45};
Surface Loop(46) = {44,85,535,564,574,575};
Volume(46) = {46};
Surface Loop(47) = {86,537,567,574,576,577};
Volume(47) = {47};
Surface Loop(48) = {87,539,570,576,578,579};
Volume(48) = {48};
Surface Loop(49) = {63,88,540,572,578,580};
Volume(49) = {49};
Surface Loop(50) = {4,45,65,543,581,582};
Volume(50) = {50};
Surface Loop(51) = {8,69,546,581,583,584};
Volume(51) = {51};
Surface Loop(52) = {12,73,549,583,585,586};
Volume(52) = {52};
Surface Loop(53) = {16,52,77,551,585,587};
Volume(53) = {53};
Surface Loop(54) = {46,66,554,582,588,589};
Volume(54) = {54};
Surface Loop(55) = {70,557,584,588,590,591};
Volume(55) = {55};
Surface Loop(56) = {74,560,586,590,592,593};
Volume(56) = {56};
Surface Loop(57) = {56,78,562,587,592,594};
Volume(57) = {57};
Surface Loop(58) = {47,67,565,589,595,596};
Volume(58) = {58};
Surface Loop(59) = {71,568,591,595,597,598};
Volume(59) = {59};
Surface Loop(60) = {75,571,593,597,599,600};
Volume(60) = {60};
Surface Loop(61) = {60,79,573,594,599,601};
Volume(61) = {61};
Surface Loop(62) = {48,68,81,575,596,602};
Volume(62) = {62};
Surface Loop(63) = {72,82,577,598,602,603};
Volume(63) = {63};
Surface Loop(64) = {76,83,579,600,603,604};
Volume(64) = {64};
Surface Loop(65) = {64,80,84,580,601,604};
Volume(65) = {65};


// COARSE ELEMENTS GROUPING

Physical Volume("c0",97) = {2};
Physical Volume("c1",98) = {3};
Physical Volume("c2",99) = {4};
Physical Volume("c3",100) = {5};
Physical Volume("c4",101) = {6};
Physical Volume("c5",102) = {7};
Physical Volume("c6",103) = {8};
Physical Volume("c7",104) = {9};
Physical Volume("c8",105) = {10};
Physical Volume("c9",106) = {11};
Physical Volume("c10",107) = {12};
Physical Volume("c11",108) = {13};
Physical Volume("c12",109) = {14};
Physical Volume("c13",110) = {15};
Physical Volume("c14",111) = {16};
Physical Volume("c15",112) = {17};
Physical Volume("c16",113) = {18};
Physical Volume("c17",114) = {19};
Physical Volume("c18",115) = {20};
Physical Volume("c19",116) = {21};
Physical Volume("c20",117) = {22};
Physical Volume("c21",118) = {23};
Physical Volume("c22",119) = {24};
Physical Volume("c23",120) = {25};
Physical Volume("c24",121) = {26};
Physical Volume("c25",122) = {27};
Physical Volume("c26",123) = {28};
Physical Volume("c27",124) = {29};
Physical Volume("c28",125) = {30};
Physical Volume("c29",126) = {31};
Physical Volume("c30",127) = {32};
Physical Volume("c31",128) = {33};
Physical Volume("c32",129) = {34};
Physical Volume("c33",130) = {35};
Physical Volume("c34",131) = {36};
Physical Volume("c35",132) = {37};
Physical Volume("c36",133) = {38};
Physical Volume("c37",134) = {39};
Physical Volume("c38",135) = {40};
Physical Volume("c39",136) = {41};
Physical Volume("c40",137) = {42};
Physical Volume("c41",138) = {43};
Physical Volume("c42",139) = {44};
Physical Volume("c43",140) = {45};
Physical Volume("c44",141) = {46};
Physical Volume("c45",142) = {47};
Physical Volume("c46",143) = {48};
Physical Volume("c47",144) = {49};
Physical Volume("c48",145) = {50};
Physical Volume("c49",146) = {51};
Physical Volume("c50",147) = {52};
Physical Volume("c51",148) = {53};
Physical Volume("c52",149) = {54};
Physical Volume("c53",150) = {55};
Physical Volume("c54",151) = {56};
Physical Volume("c55",152) = {57};
Physical Volume("c56",153) = {58};
Physical Volume("c57",154) = {59};
Physical Volume("c58",155) = {60};
Physical Volume("c59",156) = {61};
Physical Volume("c60",157) = {62};
Physical Volume("c61",158) = {63};
Physical Volume("c62",159) = {64};
Physical Volume("c63",160) = {65};



// BOUNDARY CONDITIONS

Physical Surface("inlet",13) = {81,82,83,84,85,86,87,88,89,90,91,92,93,94,95,96};
Physical Surface("outlet",14) = {1,2,3,4,5,6,7,8,9,10,11,12,13,14,15,16};
Physical Surface("noflux",15) = {17,18,19,20,21,22,23,24,25,26,27,28,29,30,31,32,33,34,35,36,37,38,39,40,41,42,43,44,45,46,47,48,49,50,51,52,53,54,55,56,57,58,59,60,61,62,63,64,65,66,67,68,69,70,71,72,73,74,75,76,77,78,79,80};


// INTER-FRACTURE INTERSECTIONS


// OPTIONS

Coherence Mesh;
Transfinite Curve {:} = 3;
Transfinite Surface{:};
Transfinite Volume{:};
Recombine Surface{:};
Recombine Volume{:};